<?xml version="1.0" standalone="no"?>
<!DOCTYPE svg PUBLIC "-//W3C//DTD SVG 20010904//EN"
 "http://www.w3.org/TR/2001/REC-SVG-20010904/DTD/svg10.dtd">
<svg version="1.0" xmlns="http://www.w3.org/2000/svg"
 width="64.000000pt" height="64.000000pt" viewBox="0 0 64.000000 64.000000"
 preserveAspectRatio="xMidYMid meet">

<g transform="translate(0.000000,64.000000) scale(0.100000,-0.100000)"
fill="#000000" stroke="none">
<path d="M0 440 l0 -120 40 0 40 0 0 -140 c0 -133 1 -140 20 -140 18 0 20 7
20 60 l0 60 100 0 100 0 0 -40 0 -40 -60 0 c-53 0 -60 -2 -60 -20 0 -19 7 -20
140 -20 133 0 140 1 140 20 0 18 -7 20 -60 20 l-60 0 0 40 0 40 140 0 140 0 0
200 0 200 -320 0 -320 0 0 -120z m160 60 c0 -18 -7 -20 -60 -20 -53 0 -60 2
-60 20 0 18 7 20 60 20 53 0 60 -2 60 -20z m440 -140 l0 -160 -240 0 -240 0 0
60 0 60 40 0 40 0 0 100 0 100 200 0 200 0 0 -160z m-520 60 c0 -13 7 -20 20
-20 13 0 20 7 20 20 0 13 7 20 20 20 17 0 20 -7 20 -40 l0 -40 -60 0 -60 0 0
40 c0 33 3 40 20 40 13 0 20 -7 20 -20z"/>
</g>
</svg>
