<?xml version="1.0" encoding="iso-8859-1"?>
<!-- Generator: Adobe Illustrator 16.0.0, SVG Export Plug-In . SVG Version: 6.00 Build 0)  -->
<!DOCTYPE svg PUBLIC "-//W3C//DTD SVG 1.1//EN" "http://www.w3.org/Graphics/SVG/1.1/DTD/svg11.dtd">
<svg version="1.1" id="Capa_1" xmlns="http://www.w3.org/2000/svg" xmlns:xlink="http://www.w3.org/1999/xlink" x="0px" y="0px"
	 width="612.02px" height="612.02px" viewBox="0 0 612.02 612.02" style="enable-background:new 0 0 612.02 612.02;"
	 xml:space="preserve">
<g>
	<g id="_x36__18_">
		<g>
			<path d="M510.017,0H102.003C45.68,0,0.01,45.346,0.01,101.305v323.021c0,55.922,39.283,92.049,95.625,92.049h126.952
				l83.423,95.645l83.423-95.645h126.952c56.323,0,95.625-36.127,95.625-92.067V101.305C612.01,45.346,566.339,0,510.017,0z
				 M573.76,420.75c0,27.98-29.204,57.375-57.375,57.375h-153l-57.375,76.5l-57.375-76.5h-153
				c-28.171,0-57.375-29.395-57.375-57.375V95.625c0-27.96,29.204-57.375,57.375-57.375h420.75
				c28.171,0,57.375,29.396,57.375,57.375V420.75z"/>
		</g>
	</g>
</g>
<g>
</g>
<g>
</g>
<g>
</g>
<g>
</g>
<g>
</g>
<g>
</g>
<g>
</g>
<g>
</g>
<g>
</g>
<g>
</g>
<g>
</g>
<g>
</g>
<g>
</g>
<g>
</g>
<g>
</g>
</svg>
