<?xml version="1.0" encoding="utf-8"?>
<!-- Generator: Adobe Illustrator 16.0.0, SVG Export Plug-In . SVG Version: 6.00 Build 0)  -->
<!DOCTYPE svg PUBLIC "-//W3C//DTD SVG 1.1//EN" "http://www.w3.org/Graphics/SVG/1.1/DTD/svg11.dtd">
<svg version="1.1" id="Layer_1" xmlns="http://www.w3.org/2000/svg" xmlns:xlink="http://www.w3.org/1999/xlink" x="0px" y="0px"
	 width="536.832px" height="536.832px" viewBox="13.584 12.584 536.832 536.832"
	 enable-background="new 13.584 12.584 536.832 536.832" xml:space="preserve">
<g>
	<g>
		<circle fill="#5E5E5E" cx="282" cy="281" r="268.416"/>
	</g>
	<g enable-background="new    ">
		<path fill="#E3E3E3" d="M315.408,300.584c9.792,3.456,18.72,8.352,26.783,14.4c8.064,6.048,14.688,13.248,20.16,21.6
			c5.473,8.352,9.793,16.992,12.672,26.784c2.881,9.792,4.608,19.584,4.608,30.239h-13.823c0-12.096-2.017-23.039-6.336-33.407
			c-4.32-10.368-10.08-19.296-17.568-26.784s-16.416-13.536-26.496-17.855c-10.08-4.32-21.312-6.337-33.12-6.337
			c-7.776,0-15.264,0.864-22.464,2.88c-7.2,2.017-13.824,4.896-20.16,8.353c-6.336,3.744-11.808,8.063-16.992,12.96
			c-5.184,5.184-9.504,10.656-12.96,16.992s-6.336,12.96-8.352,20.16c-2.016,7.199-2.88,14.688-2.88,22.752h-13.824
			c0-10.656,1.44-20.736,4.608-30.24s7.488-18.432,12.96-26.496c5.472-8.063,12.384-15.264,20.448-21.312
			c8.064-6.048,16.704-10.944,26.784-14.688c-5.76-3.168-10.656-6.912-15.264-11.232c-4.608-4.319-8.352-9.216-11.52-14.688
			s-5.472-11.232-7.2-17.28s-2.592-12.384-2.592-18.72c0-9.792,1.728-18.72,5.472-27.359c3.744-8.641,8.64-15.841,14.976-22.465
			c6.336-6.336,13.824-11.52,22.176-14.976c8.352-3.744,17.568-5.472,27.072-5.472c9.792,0,18.72,1.728,27.072,5.472
			c8.352,3.744,15.84,8.64,22.176,14.976s11.232,13.824,14.976,22.465c3.744,8.64,5.472,17.567,5.472,27.359
			c0,6.336-0.863,12.672-2.592,18.72c-1.728,6.048-4.031,11.809-7.199,16.992c-3.168,5.473-6.912,10.368-11.521,14.688
			C326.064,293.96,320.88,297.704,315.408,300.584z M226.128,238.952c0,7.776,1.44,14.976,4.32,21.888
			c2.88,6.912,6.912,12.672,12.096,17.856c5.184,5.184,10.944,9.216,17.856,12.096c6.624,2.88,14.112,4.32,21.6,4.32
			c7.775,0,14.977-1.44,21.6-4.32c6.625-2.88,12.672-6.912,17.856-12.096c5.185-5.185,8.928-10.944,12.096-17.856
			c2.88-6.912,4.32-14.112,4.32-21.888c0-7.776-1.44-14.976-4.32-21.888s-6.911-12.672-12.096-17.856
			c-5.185-5.184-10.944-9.216-17.856-12.096c-6.623-2.88-14.111-4.32-21.6-4.32c-7.776,0-14.976,1.44-21.6,4.32
			s-12.672,6.912-17.856,12.096c-5.184,5.185-8.928,10.944-12.096,17.856C227.568,223.688,226.128,231.176,226.128,238.952z"/>
	</g>
</g>
</svg>
